<svg width="309" height="284" viewBox="0 0 309 284" fill="none" xmlns="http://www.w3.org/2000/svg">
<g clip-path="url(#clip0_62_1168)">
<path d="M139.358 166.122C90.7675 186.292 52.2155 177.262 27.9298 155.511C15.7822 144.371 7.3354 130.031 3.09788 114.641C-1.1208 98.7114 -1.1208 82.2705 3.64405 66.3408C13.1455 35.0303 41.1226 7.42063 92.3495 0H93.9315V0.530045H95.5135V1.06009H96.0408V1.59013H96.5682L117.163 18.5705C118.217 19.6306 119.272 21.2302 119.272 22.8203L118.217 45.1106L133.529 61.0404C134.583 62.1004 135.111 63.6906 134.583 65.2807L131.419 93.411L148.322 111.991C149.377 113.581 149.904 115.171 149.377 116.761L142.522 161.881C142.522 162.941 141.994 164.002 140.921 164.532C140.412 165.592 139.866 166.122 139.358 166.122ZM219.626 55.1909C218.025 53.6008 218.025 50.9411 219.626 49.351C221.208 47.7608 223.844 47.7608 225.426 49.351C225.426 49.351 226.481 49.881 229.645 52.0012L225.426 58.9012L219.626 55.1909ZM235.455 65.2713C233.873 64.2112 233.346 61.5609 234.401 59.9708C235.983 57.8412 238.111 57.8412 240.22 58.9012C249.712 65.2713 261.869 74.831 271.898 86.5014C279.299 94.4616 285.628 104.021 288.801 113.572C289.856 115.692 288.801 117.812 286.692 118.342C284.582 119.412 282.473 118.342 281.418 116.222C278.763 107.732 272.953 99.2415 266.097 91.8114C256.586 81.201 244.448 71.6318 235.465 65.2713H235.455ZM95.5135 14.3301L89.7128 29.7204L99.2048 52.5502C99.7322 53.6103 99.7322 55.2004 99.7322 56.2605L92.8768 82.2706L116.108 107.211C117.163 108.801 117.69 110.921 116.635 113.051L109.78 131.091L133.538 151.271L138.812 117.301L122.455 99.2604C120.873 98.1908 120.327 96.6007 120.873 94.4805L124.037 66.3503L109.243 50.9506C108.188 49.8905 107.661 48.8304 107.661 47.2403L108.716 24.95L95.5041 14.3396L95.5135 14.3301ZM224.372 188.952C214.334 190.012 204.305 190.542 195.321 190.542C185.302 191.081 176.309 190.542 167.872 189.482C165.762 188.952 164.18 187.361 163.653 185.771L152.56 156.581C152.033 154.461 152.56 152.341 154.142 150.741L168.926 138.531L162.071 113.591C161.543 111.461 162.071 109.871 163.125 108.811L184.775 77.5001L182.138 44.0695C182.138 41.9493 183.193 40.3591 184.247 39.2896L203.787 22.8393C205.369 21.2491 207.478 21.2491 209.06 21.7792C217.498 24.9594 225.963 29.1998 234.928 33.9797C242.857 38.7501 251.831 44.59 260.814 50.96C281.936 66.8898 296.184 83.3401 303.058 99.2699C309.386 112.54 310.441 125.27 307.277 136.95C304.64 148.63 296.73 159.25 285.1 167.731C271.371 178.351 250.767 185.781 224.381 188.961L224.372 188.952ZM194.794 179.941C203.777 179.941 213.279 179.411 223.317 178.351C247.603 175.161 266.615 168.791 279.29 159.241C288.782 152.341 294.592 143.841 297.229 134.291C299.884 125.27 298.284 114.651 293.538 104.04C287.21 89.7006 273.998 74.3199 254.458 59.4597C246.021 53.0897 237.555 47.7703 229.645 42.9999C222.262 39.2801 214.852 35.5698 207.996 32.9196L193.202 45.6596L195.839 78.5602C195.839 79.6298 195.312 81.2199 194.784 82.28L172.608 113.06L179.991 139.071C180.537 140.661 179.482 143.311 177.881 144.371L164.161 156.572L172.599 178.871C179.473 179.931 187.392 180.461 194.775 179.931L194.794 179.941ZM35.3219 147.551C55.3889 165.601 87.0761 173.561 127.21 159.771L100.288 136.941C98.6869 135.351 98.1596 133.231 98.6869 131.101L106.088 112L83.3848 87.0504C81.8028 85.9903 81.2566 83.8702 81.8028 82.28L89.1855 55.2099L79.1473 32.3895C78.6199 31.32 78.6199 29.7298 79.1473 28.1397L84.9668 12.21C44.3054 20.7001 21.5829 43.5205 13.6729 69.5211C9.45416 83.3306 9.45416 98.1814 13.1455 111.451C16.8369 125.252 24.2478 137.992 35.3219 147.542V147.551Z" fill="#DBDBDB"/>
<path d="M115.505 260.176H125.779V270.503H115.505V284H103.97V270.654H73.6289V260.167L95.438 216.41H115.505V260.167V260.176ZM103.97 260.176V225.629L86.2661 260.176H103.97Z" fill="#DBDBDB"/>
<path d="M159.359 216.022C169.472 216.022 177.769 224.285 177.769 234.526V265.496C177.769 275.737 169.472 284 159.359 284H149.321C139.207 284 130.986 275.737 130.986 265.496V234.526C130.986 224.285 139.207 216.022 149.321 216.022H159.359ZM166.308 236.589C166.308 231.904 162.598 228.09 158.012 228.09H150.667C146.081 228.09 142.371 231.904 142.371 236.589V263.432C142.371 268.118 146.081 271.932 150.667 271.932H158.012C162.598 271.932 166.308 268.118 166.308 263.432V236.589Z" fill="#DBDBDB"/>
<path d="M225.097 260.176H235.37V270.503H225.097V284H213.561V270.654H183.221V260.167L205.03 216.41H225.097V260.167V260.176ZM213.561 260.176V225.629L195.867 260.176H213.561Z" fill="#DBDBDB"/>
</g>
<defs>
<clipPath id="clip0_62_1168">
<rect width="309" height="284" fill="white"/>
</clipPath>
</defs>
</svg>
