<svg width="305" height="280" viewBox="0 0 305 280" fill="none" xmlns="http://www.w3.org/2000/svg">
<path d="M85.7141 145.498C70.3307 141.963 57.5801 133.997 48.3518 122.947H32.5281C29.8953 122.947 27.6938 124.276 25.9416 125.597C24.1894 127.36 23.3088 129.575 23.3088 132.224C23.3088 134.874 24.1894 137.098 25.9416 138.87C27.6938 140.634 29.8953 141.52 32.5281 141.52H48.7921C53.6354 141.52 58.0293 143.726 61.1024 146.819C64.6158 149.911 66.368 154.785 66.368 159.65C66.368 164.514 64.6158 168.945 61.1024 172.48C58.0293 175.573 53.6354 177.779 48.7921 177.779H18.0162C15.3834 177.779 13.1909 178.665 11.4298 180.429C9.67755 182.192 8.79695 184.407 8.79695 187.075C8.79695 189.281 9.67755 191.93 11.4298 193.259C13.182 195.023 15.3834 195.909 18.0162 195.909H260.171C262.803 195.909 265.014 195.023 266.775 193.259C268.527 191.93 269.408 189.281 269.408 187.075C269.408 184.407 268.527 182.201 266.775 180.429C265.023 178.665 262.812 177.779 260.171 177.779H249.63C244.347 177.779 239.953 175.573 236.88 172.48C233.366 168.945 231.614 164.514 231.614 159.65C231.614 154.785 233.366 150.354 236.448 146.819H236.889C239.962 143.726 244.356 141.52 249.639 141.52H286.993C289.185 141.52 291.827 140.634 293.139 138.87C294.891 137.107 296.212 134.892 296.212 132.224C296.212 129.557 294.891 127.369 293.579 125.597C291.827 124.267 289.626 122.947 286.993 122.947H253.153C250.52 126.483 247.429 130.018 243.475 133.111C234.256 140.2 221.505 145.942 205.682 149.034C205.682 151.258 205.241 153.465 204.801 155.68L203.92 158.329C205.241 158.772 206.553 159.659 207.434 160.536C209.626 162.742 210.947 165.391 210.947 168.05C210.947 174.696 202.608 179.995 189.418 183.53C177.988 186.198 162.604 187.961 145.469 187.961C128.333 187.961 112.95 186.198 101.529 183.53C88.3469 179.995 80.4216 174.696 80.4216 168.05C80.4216 165.4 81.7425 162.751 83.935 160.536C84.8156 159.65 85.7051 158.772 87.026 158.329L86.5857 155.68C85.7052 153.474 85.7051 151.258 85.7051 148.6C85.7051 147.714 85.7051 146.828 85.7051 145.507L85.7141 145.498ZM145.909 130.461C143.717 130.904 142.396 129.132 142.396 127.369C142.396 125.606 143.717 124.276 145.469 124.276H151.193C152.945 124.276 154.266 126.04 154.266 127.812C154.266 129.584 152.513 130.904 150.734 130.904L148.102 130.461H145.909ZM163.045 133.111C161.292 132.224 160.412 130.461 160.852 128.689C161.292 126.926 163.045 126.04 164.806 126.483C170.53 128.246 176.676 130.904 181.07 134.44C185.042 137.993 188.555 141.963 190.307 147.271C190.747 149.034 189.867 150.806 188.115 151.692C186.362 152.144 184.601 151.267 184.161 149.486C182.84 145.507 180.198 142.415 177.125 139.766C173.171 136.673 168.346 134.449 163.063 133.12L163.045 133.111ZM204.361 140.634C218.423 137.098 229.844 132.224 238.201 126.04C241.714 122.947 244.787 119.855 246.98 116.744C246.98 116.301 247.42 115.858 247.42 115.858C249.63 112.323 251.383 108.787 252.263 104.808C253.584 96.8422 252.263 87.9989 247.869 79.1466C242.145 67.6449 231.605 55.7182 215.772 44.2074C208.746 38.9087 202.159 34.0349 195.123 30.4994C189.418 26.9639 183.253 23.8715 177.548 21.6652L164.797 32.7148L166.989 59.6968C166.989 60.5829 166.989 61.9031 166.109 62.7892L153.816 80.9189H153.376L147.652 89.3281L145.46 109.664C161.715 109.664 176.667 113.643 187.216 120.28C195.555 125.578 201.719 132.649 204.352 140.616L204.361 140.634ZM136.681 110.116L138.873 87.1218C138.873 86.6788 139.314 85.8017 139.754 85.3405L145.019 77.3924L140.194 58.3766L122.178 42.4533C120.857 41.5671 120.426 40.69 120.426 38.9177L121.306 20.345L110.317 11.4927L105.483 24.7667L113.821 43.7825C114.262 44.6686 114.262 45.5457 113.821 46.4318L108.115 68.097L127.452 89.3372C128.773 90.6664 128.773 92.4296 128.333 93.7588L122.187 109.239L125.7 111.888C129.214 111.002 132.727 110.125 136.69 110.125L136.681 110.116ZM115.573 114.538L114.253 113.652C112.932 112.766 112.5 110.559 112.932 108.796L119.096 93.3158L100.181 72.5367C99.3004 71.2166 98.8601 69.8874 99.3004 68.106L105.024 45.5547L97.1079 26.5389C96.6676 25.6528 96.2274 24.3326 96.6676 23.4465L101.511 10.1725C75.138 15.4712 57.5621 28.3022 48.3248 44.2255H47.8845C42.6189 53.964 39.5459 64.5615 39.5459 74.743C39.5459 84.9246 41.7384 95.9651 46.5726 105.261C48.7651 108.796 50.9756 112.332 53.6084 115.867H54.0487C61.9561 126.049 73.8261 133.997 88.329 137.107C90.9618 130.461 96.6676 124.719 103.712 120.307C107.226 118.082 111.179 116.31 115.564 114.547L115.573 114.538ZM182.373 127.812C173.154 122.07 159.963 118.535 145.46 118.535C130.957 118.535 117.784 122.07 108.547 127.812C99.7677 133.554 94.4841 140.643 94.4841 148.591C94.4841 150.354 94.4841 152.144 94.9244 153.465C95.3647 154.794 95.805 156.557 96.6766 157.886L97.1169 158.329C97.9975 160.536 96.6766 163.185 94.4841 164.071C92.7319 164.957 90.9707 166.277 89.6588 167.164C89.2185 167.625 89.2185 168.05 89.2185 168.05C89.2185 169.831 94.4841 172.48 103.721 174.696C114.262 177.345 129.205 179.117 145.46 179.117C161.715 179.117 176.667 177.788 187.216 174.696H187.656C196.435 172.489 202.159 169.831 202.159 168.05C202.159 168.05 201.719 167.625 201.279 167.164C200.398 166.277 198.628 164.957 196.435 164.071H195.995C193.803 162.742 193.362 160.093 194.243 157.886C195.123 156.557 195.564 154.794 195.995 153.465C196.435 152.135 196.876 150.354 196.876 148.591C196.876 140.634 191.17 133.554 182.373 127.812ZM41.7473 114.104C40.8667 112.775 39.9951 111.011 39.1145 109.248C33.3907 98.6326 30.7579 86.6969 30.7579 74.7521C31.1982 62.8073 34.2713 50.8625 40.4354 39.8129L40.8757 39.3699C52.2965 20.354 73.8441 4.87376 107.675 0H109.868V0.443069H110.748V0.886138H111.188L128.324 15.0372C129.645 15.9234 130.076 17.2435 130.076 18.5818L129.196 37.1545L147.212 52.6348C147.652 53.0779 148.093 53.964 148.533 54.8411L152.055 68.097L158.201 58.8197L156.009 30.9515C156.009 29.6223 156.449 27.8591 157.761 26.973L174.025 13.2649C175.346 11.9357 177.098 11.9357 178.419 12.3788C185.455 15.0282 192.482 18.5818 199.508 22.5604C206.544 26.5389 214.011 31.3946 221.056 37.1545C237.751 49.5243 249.172 62.3552 255.777 75.1861C261.042 86.2448 262.803 96.8513 260.602 106.59C260.162 109.239 259.281 111.898 258.409 114.104H286.984C291.818 114.104 296.203 116.31 299.734 119.421C302.807 122.956 305 127.369 305 132.234C305 137.098 302.807 141.972 299.734 145.064C296.203 148.157 291.818 150.363 286.984 150.363H249.63C246.98 150.363 244.787 151.258 243.026 153.031C241.274 154.794 240.393 157.009 240.393 159.659C240.393 162.308 241.274 164.514 243.026 166.287C244.778 167.625 246.98 168.954 249.63 168.954H260.171C265.014 168.954 269.848 170.717 272.921 174.253C276.435 177.345 278.187 181.767 278.187 187.084C278.187 191.939 275.994 196.361 272.921 199.453C269.848 203.007 265.023 204.77 260.171 204.77H18.0162C13.1909 204.77 8.35666 203.007 5.28356 199.453C1.76119 196.361 0 191.939 0 187.084C0 181.767 1.7522 177.345 5.28356 174.253C8.35666 170.717 12.7506 168.954 18.0162 168.954H48.7831C50.9936 168.954 53.6264 167.625 54.9473 166.287C56.6995 164.523 57.5801 162.308 57.5801 159.659C57.5801 157.009 56.6995 154.803 54.9473 153.031C53.1951 151.267 50.9936 150.363 48.7831 150.363H32.5191C27.6848 150.363 22.8595 148.157 19.7864 145.064C16.6953 141.972 14.5028 137.107 14.5028 132.234C14.5028 127.36 16.6953 122.956 19.7864 119.421C23.2998 116.31 27.6848 114.104 32.5191 114.104H41.7563H41.7473ZM187.225 40.256C185.904 38.9268 185.904 36.7205 187.225 35.3822C188.546 34.0621 190.298 34.0621 191.61 35.3822C191.61 35.3822 192.931 36.2774 195.564 37.6066L192.05 43.3484L187.225 40.256ZM200.407 48.6472C198.637 47.761 198.637 45.5547 199.517 44.2255C200.407 42.9054 202.608 42.4623 203.92 43.3394C211.819 49.0812 222.377 57.0474 230.716 66.3338C236.88 73.4138 242.145 80.9279 244.778 88.8941C245.659 90.6573 244.338 92.4296 243.026 93.3158C241.274 93.7588 239.072 92.8727 238.632 91.1095C235.999 84.0204 231.605 76.9584 225.89 70.7735C217.983 61.9212 207.874 54.4071 200.407 48.6472Z" fill="#B1B1B2"/>
<path d="M109.337 226.804C109.813 230.471 109.651 234.462 109.732 238.211C109.732 242.516 109.813 246.822 109.813 251.128V257.905H113.237C115.546 257.905 118.655 258.939 118.817 261.735C118.817 265.087 116.346 266.121 113.398 266.283C113.084 266.283 109.975 266.526 109.813 266.202V271.622C109.813 273.932 110.056 277.843 107.737 279.362C106.785 280 104.071 280.081 102.876 279.757C100.962 279.119 100.648 276.566 100.486 274.813C100.405 274.094 100.648 266.598 100.172 266.598H86.1449C83.1167 266.598 79.2889 266.921 76.8987 265.078C73.1517 262.211 76.2607 257.977 78.4172 255.191C82.4788 249.77 86.1539 244.027 89.9728 238.525C92.0485 235.658 94.5195 233.105 96.5054 230.229C98.0239 227.999 99.6144 225.366 102.247 224.089C104.799 222.894 107.351 222.732 108.627 224.566C108.942 225.042 109.265 225.923 109.346 226.795L109.337 226.804ZM100.729 238.921L87.4928 257.582H100.729V238.921Z" fill="#B1B1B2"/>
<path d="M140.661 279.029C137.795 277.915 135.162 275.838 133.005 273.366C127.901 267.622 125.197 259.335 125.197 251.281C125.197 245.86 126.311 240.278 128.387 235.253C129.905 231.667 133.491 226.804 136.833 225.285C138.028 224.727 139.385 224.17 140.661 223.694C144.085 222.66 148.712 222.894 152.217 223.694C161.939 226.004 166.171 236.53 167.366 246.66C167.762 250.013 167.609 253.438 167.205 256.791C166.405 263.011 165.129 269.15 160.672 273.618C156.682 277.528 151.821 279.838 146.484 280C144.57 280 142.575 279.757 140.661 279.047V279.029ZM142.18 234.534C140.742 235.487 139.547 236.925 138.675 238.444C136.447 242.274 135.728 246.822 135.728 251.2C135.728 255.577 136.609 261.007 139.232 264.998C140.508 266.912 142.261 268.422 144.57 269.061C146.726 269.618 148.955 269.456 150.869 268.261C157.006 264.512 157.806 254.624 157.329 248.161C156.853 241.779 154.301 233.249 146.412 233.492C144.974 233.492 143.465 233.734 142.189 234.525L142.18 234.534Z" fill="#B1B1B2"/>
<path d="M208.18 226.804C208.656 230.471 208.503 234.462 208.575 238.211C208.575 242.516 208.656 246.822 208.656 251.128V257.905H212.079C214.389 257.905 217.498 258.939 217.66 261.735C217.66 265.087 215.188 266.121 212.241 266.283C211.927 266.283 208.818 266.526 208.656 266.202V271.622C208.656 273.932 208.898 277.843 206.58 279.362C205.628 280 202.914 280.081 201.719 279.757C199.805 279.119 199.491 276.566 199.329 274.813C199.248 274.094 199.491 266.598 199.014 266.598H184.988C181.96 266.598 178.132 266.921 175.741 265.078C171.994 262.211 175.103 257.977 177.26 255.191C181.322 249.77 184.997 244.027 188.816 238.525C190.891 235.658 193.362 233.105 195.348 230.229C196.867 227.999 198.457 225.366 201.09 224.089C203.642 222.894 206.194 222.732 207.47 224.566C207.784 225.042 208.108 225.923 208.189 226.795L208.18 226.804ZM199.571 238.921L186.336 257.582H199.571V238.921Z" fill="#B1B1B2"/>
</svg>
