<svg width="147" height="40" viewBox="0 0 147 40" fill="none" xmlns="http://www.w3.org/2000/svg">
<path d="M6.76245 7.55253C6.76245 7.02879 6.95611 6.6501 7.33534 6.40031C7.72265 6.15859 8.14223 6.02966 8.60216 6.02966C9.2154 6.02966 9.65919 6.21499 9.9174 6.58563C10.1756 6.95628 10.337 7.43973 10.4015 8.03598C10.4661 8.63224 10.4741 9.31711 10.4499 10.0906C10.4177 10.8561 10.4177 11.6296 10.4499 12.3951C10.4822 13.2572 10.5145 14.0952 10.5387 14.909C10.571 15.7228 10.6275 16.4077 10.7243 16.9637C11.3053 17.0523 12.0799 17.1007 13.032 17.1007C13.7421 17.1007 14.4925 17.0845 15.2913 17.0523C16.0901 17.0201 16.8809 16.9637 17.6716 16.8912C18.4543 16.8186 19.2208 16.73 19.9551 16.6414C20.6975 16.5447 21.343 16.4399 21.8917 16.3191C22.3193 16.3191 22.6743 16.4802 22.9568 16.8025C23.2392 17.1248 23.3763 17.5196 23.3763 17.9789C23.3763 18.4704 23.1746 18.8652 22.7792 19.1553C22.3839 19.4454 21.8594 19.671 21.2058 19.8241C20.5603 19.9772 19.8099 20.09 18.9626 20.1464C18.1154 20.2109 17.2278 20.2511 16.308 20.2834L16.4451 24.715V29.5092C17.7362 29.5092 19.0353 29.4689 20.3263 29.3964C21.6173 29.3239 22.9164 29.203 24.2074 29.0499C24.6109 28.7115 25.0143 28.4617 25.4339 28.3086C25.8535 28.1555 26.3376 27.9702 26.8863 27.7527C27.2817 27.8413 27.6125 28.1314 27.8546 28.6068C28.0966 29.0822 28.2257 29.5495 28.2257 30.0168C28.2257 30.4842 28.1209 30.8951 27.903 31.2657C27.6851 31.6364 27.3462 31.8539 26.8863 31.9103C24.6351 32.2487 22.4081 32.5066 20.1891 32.6677C17.9702 32.8369 15.7835 32.9256 13.6291 32.9256C11.7813 32.9256 10.0142 32.8692 8.31975 32.7644C6.62528 32.6597 4.99536 32.4985 3.42192 32.281C2.83289 32.2165 2.44559 31.9909 2.24386 31.588C2.04214 31.1932 1.94531 30.7903 1.94531 30.3875C1.94531 29.9846 2.08248 29.6381 2.3649 29.3239C2.63924 29.0177 3.02655 28.8646 3.51875 28.8646C4.84205 29.0499 6.30252 29.203 7.90824 29.3239C9.50588 29.4447 11.1842 29.5092 12.9432 29.5092C12.9432 28.8646 12.9271 28.1233 12.8948 27.2934C12.8625 26.4635 12.8303 25.6174 12.8061 24.7553C12.7738 23.8931 12.7415 23.0793 12.7173 22.3139C12.685 21.5484 12.6689 20.9038 12.6689 20.3801C12.4188 20.4123 12.1928 20.4284 11.975 20.4284H11.3295C10.1917 20.4284 9.31223 20.3156 8.69899 20.0819C8.08575 19.8483 7.62582 19.3004 7.33534 18.4221C7.04486 17.5438 6.87542 16.2546 6.827 14.5464C6.77859 12.8382 6.75438 10.5096 6.75438 7.56058L6.76245 7.55253Z" fill="#F5C045" stroke="#F5C045" stroke-width="2" stroke-miterlimit="10"/>
<path d="M37.2871 19.4534C37.2871 18.9297 37.4727 18.551 37.8439 18.3012C38.215 18.0595 38.6104 17.9305 39.0461 17.9305C39.6029 17.9305 40.0063 18.1159 40.2726 18.4865C40.5389 18.8572 40.7003 19.3164 40.7809 19.8724C40.8536 20.4284 40.8778 21.0327 40.8536 21.6934C40.8213 22.3541 40.8213 22.9584 40.8536 23.5144C40.8858 24.1912 40.9262 24.8519 40.9665 25.4965C41.0069 26.1411 41.0795 26.7454 41.1763 27.2933C41.8864 27.4142 42.6529 27.5189 43.484 27.5915C44.3151 27.664 45.1785 27.7043 46.0742 27.7043C46.5341 27.7043 47.0021 27.6801 47.4862 27.6318C47.9703 27.5834 48.4303 27.5592 48.8983 27.5592C49.3259 27.5592 49.6487 27.7284 49.8665 28.0669C50.0844 28.4053 50.1893 28.792 50.1893 29.2191C50.1893 29.7751 50.0037 30.1779 49.6325 30.4438C49.2614 30.7097 48.8095 30.8789 48.2689 30.9514C47.7283 31.032 47.1796 31.0562 46.6309 31.0401C46.0742 31.024 45.6142 31.0159 45.2431 31.0159C44.4442 31.0159 43.6212 31.0159 42.774 30.9917C41.9267 30.9676 41.144 30.8789 40.4178 30.6936C39.6916 30.5083 39.0945 30.2021 38.6185 29.775C38.1424 29.348 37.86 28.7276 37.7632 27.9299C37.6421 26.6407 37.5211 25.2306 37.4162 23.7078C37.3113 22.1849 37.271 20.7668 37.3032 19.4373L37.2871 19.4534ZM56.3217 11.1542C56.0715 10.848 55.9505 10.566 55.9505 10.3243C55.9505 9.92945 56.1441 9.56686 56.5315 9.24456C56.9188 8.92226 57.3545 8.76111 57.8467 8.76111C58.4034 8.76111 58.8795 8.97866 59.2749 9.40571L60.9371 11.7102C61.397 12.3548 61.752 13.0235 62.0022 13.7165C62.2443 14.4094 62.4218 15.1185 62.5105 15.8356C62.5993 16.5608 62.6638 17.2859 62.6961 18.0031C62.7284 18.7282 62.7687 19.4453 62.8333 20.1463C63.971 20.1786 65.1571 20.1947 66.3917 20.1947H69.6273C69.9985 20.2592 70.2647 20.4122 70.4342 20.654C70.6036 20.9037 70.6843 21.1777 70.6843 21.4839C70.6843 22.0076 70.5149 22.4911 70.176 22.9342C69.8371 23.3774 69.4094 23.603 68.885 23.603C67.9006 23.603 66.8919 23.6191 65.8591 23.6514C64.8263 23.6836 63.8177 23.6997 62.8333 23.6997C62.801 25.0856 62.7203 26.4231 62.5751 27.7123C62.4379 29.0015 62.2604 30.2504 62.0425 31.451C61.9457 32.0392 61.6956 32.4421 61.2841 32.6757C60.8645 32.9094 60.4449 33.0222 60.0172 33.0222C59.5896 33.0222 59.2265 32.9255 58.9279 32.7241C58.6374 32.5226 58.4922 32.2245 58.4922 31.8216C58.4922 31.7008 58.5083 31.6041 58.5406 31.5477C58.815 30.1618 59.0167 28.6792 59.1377 27.1C59.2588 25.5126 59.3233 23.9736 59.3233 22.4669C59.3233 20.9601 59.2668 19.4534 59.1619 18.132C59.057 16.8105 58.9037 15.6905 58.7262 14.7639C58.4519 14.208 58.1049 13.6359 57.6853 13.0316C57.2657 12.4353 56.8139 11.8068 56.3217 11.1622V11.1542Z" fill="#F5C045" stroke="#F5C045" stroke-width="2" stroke-miterlimit="10"/>
<path d="M74.5493 9.30099C74.5493 8.62416 74.9528 8.10848 75.7516 7.75395C76.5504 7.39942 77.4784 7.14963 78.5192 6.99654C79.5682 6.84345 80.6091 6.76288 81.6581 6.74676C82.707 6.73065 83.4574 6.72259 83.9173 6.72259C84.7162 6.72259 85.3697 6.94015 85.8781 7.36719C86.3864 7.8023 86.6688 8.38243 86.7334 9.12372C86.7979 9.76832 86.8464 10.4774 86.8948 11.2428C86.9432 12.0083 86.9835 12.7899 87.0319 13.5715C87.0803 14.353 87.1207 15.1427 87.1449 15.9242C87.1772 16.7058 87.1933 17.4229 87.1933 18.0675C87.1933 18.3415 87.1126 18.6396 86.9593 18.97C86.806 19.3003 86.5397 19.4857 86.1766 19.5501C84.6355 19.8563 83.0943 20.1544 81.5532 20.4526C80.012 20.7426 78.6887 20.8877 77.5832 20.8877C76.7844 20.8877 76.1873 20.6701 75.8081 20.2431C75.4208 19.816 75.1626 19.252 75.0254 18.559C74.8882 17.8661 74.8075 17.1087 74.7914 16.2788C74.7753 15.4489 74.7349 14.6189 74.6784 13.789C74.6462 12.9913 74.6139 12.2017 74.5816 11.4362C74.5493 10.6708 74.5332 9.9617 74.5332 9.3171L74.5493 9.30099ZM78.1077 10.4049C78.1077 10.9608 78.1077 11.5651 78.1319 12.2259C78.1561 12.8866 78.1642 13.5392 78.1803 14.1838C78.1965 14.8284 78.2368 15.4489 78.2933 16.029C78.3579 16.6172 78.4305 17.1329 78.5273 17.6002C78.955 17.5357 79.6247 17.4632 80.5365 17.3665C81.4402 17.2698 82.4569 17.1329 83.5623 16.9475C83.4978 15.8437 83.4493 14.6431 83.4009 13.3458C83.3525 12.0567 83.3041 10.9125 83.2396 9.92947C82.3116 9.9617 81.4483 10.0181 80.6333 10.0906C79.8183 10.1712 78.9792 10.2679 78.1158 10.3888L78.1077 10.4049ZM86.927 28.0266C88.0325 27.8413 89.1218 27.6721 90.1869 27.519C91.252 27.3659 92.4704 27.2853 93.8582 27.2853C94.7781 27.2853 95.5285 27.4303 96.1014 27.7204C96.6743 28.0105 97.1181 28.3972 97.4408 28.8726C97.7636 29.348 97.9815 29.8959 98.0864 30.5083C98.1912 31.1207 98.2477 31.7572 98.2477 32.4018C98.2477 33.4493 98.1832 34.4726 98.0621 35.4717C97.9411 36.4708 97.8039 37.3733 97.6426 38.171C97.578 38.5416 97.4086 38.7995 97.1342 38.9526C96.8599 39.1056 96.5452 39.1862 96.2063 39.1862C95.6818 39.1862 95.23 39.0412 94.8426 38.7511C94.4553 38.461 94.2617 38.0985 94.2617 37.6634C94.2617 37.5103 94.2778 37.4055 94.3101 37.3411C94.4634 36.5998 94.5764 35.8182 94.6571 34.9883C94.7297 34.1583 94.77 33.417 94.77 32.7724C94.77 31.8781 94.6086 31.314 94.2859 31.0643C93.9631 30.8225 93.5274 30.6936 92.9707 30.6936C92.2929 30.6936 91.7038 30.7258 91.1955 30.7822C90.6872 30.8467 90.2192 30.9192 89.7834 31.0159C89.3477 31.1046 88.9362 31.1851 88.5328 31.2496C88.1293 31.3141 87.7178 31.3382 87.2821 31.3382C86.9109 31.3382 86.6124 31.1368 86.3784 30.742C86.1444 30.3391 86.0314 29.8959 86.0314 29.4044C86.0314 29.066 86.104 28.7679 86.2412 28.502C86.3784 28.2441 86.6043 28.083 86.9109 28.0185L86.927 28.0266ZM98.1025 3.39484C98.0702 3.33038 98.0541 3.22564 98.0541 3.07255C98.0541 2.6455 98.2235 2.28291 98.5624 1.98478C98.9013 1.69471 99.3047 1.54968 99.7647 1.54968C100.192 1.54968 100.612 1.66248 101.015 1.89615C101.419 2.12982 101.645 2.50047 101.709 3.0242C101.806 3.6124 101.879 4.3134 101.943 5.14332C102.008 5.97324 102.056 6.88374 102.105 7.86675C102.153 8.84977 102.177 9.87307 102.201 10.9367C102.218 12.0002 102.226 13.0477 102.226 14.0952C102.226 14.9573 102.242 15.8114 102.274 16.6575C102.306 17.5035 102.274 18.269 102.185 18.9619C102.089 19.6549 101.903 20.2189 101.604 20.6459C101.314 21.073 100.846 21.2905 100.192 21.2905C99.7324 21.2905 99.3451 21.1616 99.0385 20.8957C98.7319 20.6379 98.5785 20.2753 98.5785 19.808C98.5785 19.252 98.5947 18.6316 98.627 17.9386C98.6592 17.2457 98.6754 16.5286 98.6754 15.7953V12.661C98.0863 12.7254 97.3763 12.7979 96.529 12.8946C95.6818 12.9833 94.8346 13.0719 93.9873 13.1444C93.1401 13.225 92.3574 13.2814 91.6312 13.3297C90.905 13.3781 90.3644 13.4022 89.9932 13.4022C89.501 13.4022 89.1379 13.1847 88.9039 12.7577C88.6699 12.3306 88.557 11.8955 88.557 11.4685C88.557 10.9125 88.9201 10.5096 89.6463 10.2437C90.3725 9.98587 91.2439 9.80055 92.2767 9.68774C93.3095 9.58299 94.3988 9.51048 95.5527 9.47825C96.7066 9.44602 97.7152 9.37351 98.5785 9.24459C98.514 8.07625 98.4494 6.98042 98.3688 5.97324C98.2881 4.95799 98.2074 4.09585 98.1106 3.38679L98.1025 3.39484Z" fill="#F5C045" stroke="#F5C045" stroke-width="2" stroke-miterlimit="10"/>
<path d="M113.482 15.0218C114.563 15.2071 115.604 15.2796 116.621 15.2313C117.637 15.1829 118.896 15.1749 120.413 15.2071C120.994 15.2071 121.47 15.2877 121.825 15.4408C122.18 15.5939 122.463 15.7792 122.681 15.9967C122.898 16.2143 123.044 16.4479 123.116 16.7138C123.189 16.9717 123.229 17.2134 123.229 17.431C123.229 18.2931 123.028 19.1633 122.632 20.0335C122.229 20.9118 121.696 21.8868 121.018 22.9665C121.882 23.6111 122.753 24.1348 123.625 24.5377C124.504 24.9405 125.585 25.3031 126.884 25.6416C127.223 25.7302 127.473 25.9074 127.627 26.1733C127.78 26.4392 127.861 26.7213 127.861 27.0274C127.861 27.4545 127.732 27.8654 127.465 28.2522C127.207 28.6389 126.828 28.8323 126.336 28.8323C125.811 28.8323 125.23 28.7356 124.577 28.5342C123.931 28.3328 123.278 28.083 122.616 27.7768C121.954 27.4706 121.325 27.1402 120.72 26.7857C120.123 26.4312 119.59 26.0847 119.122 25.7463C118.783 26.2056 118.364 26.7535 117.855 27.382C117.347 28.0104 116.814 28.6148 116.258 29.1788C115.701 29.7509 115.152 30.2343 114.596 30.6291C114.039 31.032 113.547 31.2254 113.119 31.2254C112.627 31.2254 112.207 31.0642 111.868 30.7419C111.529 30.4196 111.36 30.0893 111.36 29.7509C111.36 29.4124 111.513 29.0902 111.82 28.784C113.668 27.0033 115.233 25.2064 116.508 23.4096C117.783 21.6128 118.775 19.9288 119.485 18.3576C118.84 18.3898 118.138 18.4462 117.379 18.5187C116.621 18.5993 115.814 18.6315 114.959 18.6315C114.523 18.6315 114.079 18.6315 113.619 18.6074C113.159 18.5912 112.732 18.5187 112.352 18.3979C111.965 18.277 111.65 18.0675 111.408 17.7774C111.158 17.4874 111.037 17.0764 111.037 16.5527C111.102 16.1579 111.279 15.8034 111.594 15.4891C111.9 15.1829 112.409 15.0298 113.119 15.0298H113.49L113.482 15.0218ZM131.589 11.1461C131.338 10.8399 131.217 10.5579 131.217 10.3162C131.217 9.92138 131.411 9.55879 131.798 9.23649C132.186 8.91419 132.621 8.75305 133.114 8.75305C133.67 8.75305 134.146 8.97059 134.542 9.39764L136.204 11.7021C136.664 12.3467 137.019 13.0155 137.269 13.7084C137.511 14.4013 137.689 15.1104 137.777 15.8275C137.866 16.5527 137.931 17.2779 137.963 17.995C137.995 18.7202 138.036 19.4373 138.1 20.1383C139.238 20.1705 140.424 20.1866 141.659 20.1866H144.894C145.265 20.2511 145.532 20.4042 145.701 20.6459C145.871 20.8957 145.951 21.1696 145.951 21.4758C145.951 21.9996 145.782 22.483 145.443 22.9262C145.104 23.3693 144.676 23.5949 144.152 23.5949C143.168 23.5949 142.159 23.6111 141.126 23.6433C140.093 23.6755 139.085 23.6916 138.1 23.6916C138.068 25.0775 137.987 26.4151 137.842 27.7043C137.705 28.9935 137.527 30.2424 137.309 31.4429C137.213 32.0311 136.963 32.434 136.551 32.6677C136.131 32.9014 135.712 33.0142 135.284 33.0142C134.857 33.0142 134.493 32.9175 134.195 32.716C133.904 32.5146 133.759 32.2165 133.759 31.8136C133.759 31.6927 133.775 31.596 133.808 31.5396C134.082 30.1537 134.284 28.6712 134.405 27.0919C134.526 25.5046 134.59 23.9656 134.59 22.4588C134.59 20.9521 134.534 19.4453 134.429 18.1239C134.324 16.8025 134.171 15.6825 133.993 14.7559C133.719 14.1999 133.372 13.6278 132.952 13.0235C132.533 12.4273 132.081 11.7988 131.589 11.1542V11.1461Z" fill="#F5C045" stroke="#F5C045" stroke-width="2" stroke-miterlimit="10"/>
</svg>
