<svg width="237" height="222" viewBox="0 0 237 222" fill="none" xmlns="http://www.w3.org/2000/svg">
<g clip-path="url(#clip0_70_1368)">
<path d="M166.881 3.22302C147.911 3.22302 130.797 19.4105 118.621 40.1505C130.16 59.8108 137.252 83.5723 137.252 101.524C137.252 119.477 130.16 135.14 118.621 146.485C130.797 158.459 147.919 165.638 166.881 165.638C203.829 165.638 233.772 138.42 233.772 101.524C233.772 64.6292 203.829 3.22302 166.881 3.22302Z" fill="#FFFAE3" stroke="#F5C045" stroke-width="5" stroke-miterlimit="10"/>
<path d="M165.388 55.782C152.196 55.782 140.326 61.4303 132.064 70.4305C135.485 81.437 137.373 92.2502 137.373 101.524C137.373 111.894 135.009 121.499 130.781 129.951C139.076 139.797 151.494 146.058 165.388 146.058C190.354 146.058 210.59 125.85 210.59 100.92C210.59 75.9902 190.354 55.782 165.388 55.782V55.782Z" fill="#FFE873"/>
<path d="M151.889 107.116C154.759 107.116 157.086 104.793 157.086 101.927C157.086 99.0615 154.759 96.7383 151.889 96.7383C149.019 96.7383 146.693 99.0615 146.693 101.927C146.693 104.793 149.019 107.116 151.889 107.116Z" fill="#040000"/>
<path d="M181.389 107.116C184.259 107.116 186.586 104.793 186.586 101.927C186.586 99.0615 184.259 96.7383 181.389 96.7383C178.519 96.7383 176.193 99.0615 176.193 101.927C176.193 104.793 178.519 107.116 181.389 107.116Z" fill="#040000"/>
<path d="M144.442 116.858C146.603 116.858 148.355 115.108 148.355 112.95C148.355 110.792 146.603 109.042 144.442 109.042C142.28 109.042 140.528 110.792 140.528 112.95C140.528 115.108 142.28 116.858 144.442 116.858Z" fill="#EA5F2B"/>
<path d="M188.845 116.858C191.006 116.858 192.758 115.108 192.758 112.95C192.758 110.792 191.006 109.042 188.845 109.042C186.683 109.042 184.931 110.792 184.931 112.95C184.931 115.108 186.683 116.858 188.845 116.858Z" fill="#EA5F2B"/>
<path d="M137.01 101.524C137.01 138.42 107.058 165.638 70.1188 165.638C33.1793 165.638 3.22754 138.42 3.22754 101.524C3.22754 64.6292 33.1793 3.22302 70.1188 3.22302C107.058 3.22302 137.01 64.6292 137.01 101.524Z" fill="#FFFAE3" stroke="#F5C045" stroke-width="5" stroke-miterlimit="10"/>
<path d="M70.119 146.058C95.0834 146.058 115.321 125.849 115.321 100.92C115.321 75.991 95.0834 55.782 70.119 55.782C45.1546 55.782 24.917 75.991 24.917 100.92C24.917 125.849 45.1546 146.058 70.119 146.058Z" fill="#FFE873"/>
<path d="M55.3687 107.116C58.2386 107.116 60.5651 104.793 60.5651 101.927C60.5651 99.0615 58.2386 96.7383 55.3687 96.7383C52.4989 96.7383 50.1724 99.0615 50.1724 101.927C50.1724 104.793 52.4989 107.116 55.3687 107.116Z" fill="#040000"/>
<path d="M84.8687 107.116C87.7386 107.116 90.0651 104.793 90.0651 101.927C90.0651 99.0615 87.7386 96.7383 84.8687 96.7383C81.9989 96.7383 79.6724 99.0615 79.6724 101.927C79.6724 104.793 81.9989 107.116 84.8687 107.116Z" fill="#040000"/>
<path d="M47.9212 118.904C50.0826 118.904 51.8347 117.155 51.8347 114.997C51.8347 112.838 50.0826 111.089 47.9212 111.089C45.7599 111.089 44.0078 112.838 44.0078 114.997C44.0078 117.155 45.7599 118.904 47.9212 118.904Z" fill="#EA5F2B"/>
<path d="M92.3246 118.904C94.4859 118.904 96.238 117.155 96.238 114.997C96.238 112.838 94.4859 111.089 92.3246 111.089C90.1632 111.089 88.4111 112.838 88.4111 114.997C88.4111 117.155 90.1632 118.904 92.3246 118.904Z" fill="#EA5F2B"/>
<path d="M80.1888 116.672C79.0833 122.434 75.2345 124.867 70.1107 124.867C64.5431 124.867 61.0412 122.264 60.0326 116.672C59.0482 111.201 64.5431 113.369 70.1107 113.369C75.6782 113.369 81.2377 111.209 80.1888 116.672Z" fill="#040000"/>
<path d="M75.3798 120.435C74.8553 122.353 72.12 122.861 70.1269 122.861C68.1339 122.861 65.568 122.401 64.8902 120.435C64.2124 118.469 67.6175 118.01 70.1269 118.01C72.128 118.01 75.9123 118.51 75.3798 120.435Z" fill="#EA5F2B"/>
<path d="M171.836 111.137C171.836 113.997 169.512 116.326 166.639 116.326C163.767 116.326 161.443 114.005 161.443 111.137" stroke="#040000" stroke-width="5" stroke-miterlimit="10"/>
<path d="M52.7625 189.553C52.7625 189.029 52.9561 188.65 53.3353 188.4C53.7227 188.159 54.1422 188.03 54.6022 188.03C55.2154 188.03 55.6592 188.215 55.9174 188.586C56.1756 188.956 56.337 189.44 56.4015 190.036C56.4661 190.632 56.4742 191.317 56.4499 192.091C56.4177 192.856 56.4177 193.63 56.4499 194.395C56.4822 195.257 56.5145 196.095 56.5387 196.909C56.571 197.723 56.6275 198.408 56.7243 198.964C57.3053 199.052 58.0799 199.101 59.032 199.101C59.7421 199.101 60.4925 199.085 61.2913 199.052C62.0901 199.02 62.8809 198.964 63.6716 198.891C64.4543 198.819 65.2208 198.73 65.9551 198.641C66.6975 198.545 67.343 198.44 67.8917 198.319C68.3193 198.319 68.6743 198.48 68.9568 198.803C69.2392 199.125 69.3763 199.52 69.3763 199.979C69.3763 200.47 69.1746 200.865 68.7792 201.155C68.3839 201.445 67.8594 201.671 67.2058 201.824C66.5603 201.977 65.8099 202.09 64.9626 202.146C64.1154 202.211 63.2278 202.251 62.308 202.283L62.4451 206.715V211.509C63.7362 211.509 65.0353 211.469 66.3263 211.396C67.6173 211.324 68.9164 211.203 70.2074 211.05C70.6109 210.711 71.0143 210.462 71.4339 210.309C71.8535 210.156 72.3376 209.97 72.8863 209.753C73.2817 209.841 73.6125 210.131 73.8546 210.607C74.0966 211.082 74.2257 211.549 74.2257 212.017C74.2257 212.484 74.1209 212.895 73.903 213.266C73.6851 213.636 73.3462 213.854 72.8863 213.91C70.6351 214.249 68.4081 214.507 66.1891 214.668C63.9702 214.837 61.7835 214.926 59.6291 214.926C57.7813 214.926 56.0142 214.869 54.3198 214.764C52.6253 214.66 50.9954 214.499 49.4219 214.281C48.8329 214.217 48.4456 213.991 48.2439 213.588C48.0421 213.193 47.9453 212.79 47.9453 212.387C47.9453 211.985 48.0825 211.638 48.3649 211.324C48.6392 211.018 49.0265 210.865 49.5188 210.865C50.8421 211.05 52.3025 211.203 53.9082 211.324C55.5059 211.445 57.1842 211.509 58.9432 211.509C58.9432 210.865 58.9271 210.123 58.8948 209.293C58.8625 208.463 58.8303 207.617 58.8061 206.755C58.7738 205.893 58.7415 205.079 58.7173 204.314C58.685 203.548 58.6689 202.904 58.6689 202.38C58.4188 202.412 58.1928 202.428 57.975 202.428H57.3295C56.1917 202.428 55.3122 202.316 54.699 202.082C54.0858 201.848 53.6258 201.3 53.3353 200.422C53.0449 199.544 52.8754 198.255 52.827 196.546C52.7786 194.838 52.7544 192.51 52.7544 189.561L52.7625 189.553Z" fill="#F5C045" stroke="#F5C045" stroke-width="2" stroke-miterlimit="10"/>
<path d="M83.2871 201.453C83.2871 200.93 83.4727 200.551 83.8439 200.301C84.215 200.059 84.6104 199.931 85.0461 199.931C85.6029 199.931 86.0063 200.116 86.2726 200.487C86.5389 200.857 86.7003 201.316 86.7809 201.872C86.8536 202.428 86.8778 203.033 86.8536 203.693C86.8213 204.354 86.8213 204.958 86.8536 205.514C86.8858 206.191 86.9262 206.852 86.9665 207.497C87.0069 208.141 87.0795 208.745 87.1763 209.293C87.8864 209.414 88.6529 209.519 89.484 209.591C90.3151 209.664 91.1785 209.704 92.0742 209.704C92.5341 209.704 93.0021 209.68 93.4862 209.632C93.9703 209.583 94.4303 209.559 94.8983 209.559C95.3259 209.559 95.6487 209.728 95.8665 210.067C96.0844 210.405 96.1893 210.792 96.1893 211.219C96.1893 211.775 96.0037 212.178 95.6325 212.444C95.2614 212.71 94.8095 212.879 94.2689 212.951C93.7283 213.032 93.1796 213.056 92.6309 213.04C92.0742 213.024 91.6142 213.016 91.2431 213.016C90.4442 213.016 89.6212 213.016 88.774 212.992C87.9267 212.968 87.144 212.879 86.4178 212.694C85.6916 212.508 85.0945 212.202 84.6185 211.775C84.1424 211.348 83.86 210.728 83.7632 209.93C83.6421 208.641 83.5211 207.231 83.4162 205.708C83.3113 204.185 83.271 202.767 83.3032 201.437L83.2871 201.453ZM102.322 193.154C102.072 192.848 101.95 192.566 101.95 192.324C101.95 191.929 102.144 191.567 102.531 191.245C102.919 190.922 103.354 190.761 103.847 190.761C104.403 190.761 104.88 190.979 105.275 191.406L106.937 193.71C107.397 194.355 107.752 195.024 108.002 195.716C108.244 196.409 108.422 197.118 108.511 197.836C108.599 198.561 108.664 199.286 108.696 200.003C108.728 200.728 108.769 201.445 108.833 202.146C109.971 202.179 111.157 202.195 112.392 202.195H115.627C115.998 202.259 116.265 202.412 116.434 202.654C116.604 202.904 116.684 203.178 116.684 203.484C116.684 204.008 116.515 204.491 116.176 204.934C115.837 205.377 115.409 205.603 114.885 205.603C113.901 205.603 112.892 205.619 111.859 205.651C110.826 205.684 109.818 205.7 108.833 205.7C108.801 207.086 108.72 208.423 108.575 209.712C108.438 211.002 108.26 212.25 108.043 213.451C107.946 214.039 107.696 214.442 107.284 214.676C106.864 214.909 106.445 215.022 106.017 215.022C105.59 215.022 105.226 214.926 104.928 214.724C104.637 214.523 104.492 214.225 104.492 213.822C104.492 213.701 104.508 213.604 104.541 213.548C104.815 212.162 105.017 210.679 105.138 209.1C105.259 207.513 105.323 205.974 105.323 204.467C105.323 202.96 105.267 201.453 105.162 200.132C105.057 198.811 104.904 197.691 104.726 196.764C104.452 196.208 104.105 195.636 103.685 195.032C103.266 194.435 102.814 193.807 102.322 193.162V193.154Z" fill="#F5C045" stroke="#F5C045" stroke-width="2" stroke-miterlimit="10"/>
<path d="M120.549 191.301C120.549 190.624 120.953 190.108 121.752 189.754C122.55 189.399 123.478 189.15 124.519 188.997C125.568 188.843 126.609 188.763 127.658 188.747C128.707 188.731 129.457 188.723 129.917 188.723C130.716 188.723 131.37 188.94 131.878 189.367C132.386 189.802 132.669 190.382 132.733 191.124C132.798 191.768 132.846 192.477 132.895 193.243C132.943 194.008 132.984 194.79 133.032 195.571C133.08 196.353 133.121 197.143 133.145 197.924C133.177 198.706 133.193 199.423 133.193 200.068C133.193 200.341 133.113 200.64 132.959 200.97C132.806 201.3 132.54 201.486 132.177 201.55C130.635 201.856 129.094 202.154 127.553 202.453C126.012 202.743 124.689 202.888 123.583 202.888C122.784 202.888 122.187 202.67 121.808 202.243C121.421 201.816 121.163 201.252 121.025 200.559C120.888 199.866 120.808 199.109 120.791 198.279C120.775 197.449 120.735 196.619 120.678 195.789C120.646 194.991 120.614 194.202 120.582 193.436C120.549 192.671 120.533 191.962 120.533 191.317L120.549 191.301ZM124.108 192.405C124.108 192.961 124.108 193.565 124.132 194.226C124.156 194.887 124.164 195.539 124.18 196.184C124.196 196.828 124.237 197.449 124.293 198.029C124.358 198.617 124.43 199.133 124.527 199.6C124.955 199.536 125.625 199.463 126.536 199.367C127.44 199.27 128.457 199.133 129.562 198.948C129.498 197.844 129.449 196.643 129.401 195.346C129.353 194.057 129.304 192.912 129.24 191.929C128.312 191.962 127.448 192.018 126.633 192.091C125.818 192.171 124.979 192.268 124.116 192.389L124.108 192.405ZM132.927 210.027C134.032 209.841 135.122 209.672 136.187 209.519C137.252 209.366 138.47 209.285 139.858 209.285C140.778 209.285 141.529 209.43 142.101 209.72C142.674 210.01 143.118 210.397 143.441 210.873C143.764 211.348 143.981 211.896 144.086 212.508C144.191 213.121 144.248 213.757 144.248 214.402C144.248 215.449 144.183 216.473 144.062 217.472C143.941 218.471 143.804 219.373 143.643 220.171C143.578 220.542 143.409 220.799 143.134 220.953C142.86 221.106 142.545 221.186 142.206 221.186C141.682 221.186 141.23 221.041 140.843 220.751C140.455 220.461 140.262 220.098 140.262 219.663C140.262 219.51 140.278 219.406 140.31 219.341C140.463 218.6 140.576 217.818 140.657 216.988C140.73 216.158 140.77 215.417 140.77 214.772C140.77 213.878 140.609 213.314 140.286 213.064C139.963 212.823 139.527 212.694 138.971 212.694C138.293 212.694 137.704 212.726 137.195 212.782C136.687 212.847 136.219 212.919 135.783 213.016C135.348 213.105 134.936 213.185 134.533 213.25C134.129 213.314 133.718 213.338 133.282 213.338C132.911 213.338 132.612 213.137 132.378 212.742C132.144 212.339 132.031 211.896 132.031 211.404C132.031 211.066 132.104 210.768 132.241 210.502C132.378 210.244 132.604 210.083 132.911 210.019L132.927 210.027ZM144.102 185.395C144.07 185.33 144.054 185.226 144.054 185.073C144.054 184.646 144.224 184.283 144.562 183.985C144.901 183.695 145.305 183.55 145.765 183.55C146.192 183.55 146.612 183.662 147.015 183.896C147.419 184.13 147.645 184.5 147.709 185.024C147.806 185.612 147.879 186.313 147.943 187.143C148.008 187.973 148.056 188.884 148.105 189.867C148.153 190.85 148.177 191.873 148.201 192.937C148.218 194 148.226 195.048 148.226 196.095C148.226 196.957 148.242 197.811 148.274 198.657C148.306 199.504 148.274 200.269 148.185 200.962C148.089 201.655 147.903 202.219 147.604 202.646C147.314 203.073 146.846 203.291 146.192 203.291C145.732 203.291 145.345 203.162 145.038 202.896C144.732 202.638 144.579 202.275 144.579 201.808C144.579 201.252 144.595 200.632 144.627 199.939C144.659 199.246 144.675 198.529 144.675 197.795V194.661C144.086 194.725 143.376 194.798 142.529 194.895C141.682 194.983 140.835 195.072 139.987 195.144C139.14 195.225 138.357 195.281 137.631 195.33C136.905 195.378 136.364 195.402 135.993 195.402C135.501 195.402 135.138 195.185 134.904 194.758C134.67 194.331 134.557 193.895 134.557 193.468C134.557 192.912 134.92 192.51 135.646 192.244C136.372 191.986 137.244 191.801 138.277 191.688C139.31 191.583 140.399 191.51 141.553 191.478C142.707 191.446 143.715 191.374 144.579 191.245C144.514 190.076 144.449 188.98 144.369 187.973C144.288 186.958 144.207 186.096 144.111 185.387L144.102 185.395Z" fill="#F5C045" stroke="#F5C045" stroke-width="2" stroke-miterlimit="10"/>
<path d="M159.482 197.022C160.563 197.207 161.604 197.28 162.621 197.231C163.637 197.183 164.896 197.175 166.413 197.207C166.994 197.207 167.47 197.288 167.825 197.441C168.18 197.594 168.463 197.779 168.681 197.997C168.898 198.214 169.044 198.448 169.116 198.714C169.189 198.972 169.229 199.213 169.229 199.431C169.229 200.293 169.028 201.163 168.632 202.034C168.229 202.912 167.696 203.887 167.018 204.966C167.882 205.611 168.753 206.135 169.625 206.538C170.504 206.941 171.585 207.303 172.884 207.642C173.223 207.73 173.473 207.907 173.627 208.173C173.78 208.439 173.861 208.721 173.861 209.027C173.861 209.454 173.732 209.865 173.465 210.252C173.207 210.639 172.828 210.832 172.336 210.832C171.811 210.832 171.23 210.736 170.577 210.534C169.931 210.333 169.278 210.083 168.616 209.777C167.954 209.471 167.325 209.14 166.72 208.786C166.123 208.431 165.59 208.085 165.122 207.746C164.783 208.206 164.364 208.753 163.855 209.382C163.347 210.01 162.814 210.615 162.258 211.179C161.701 211.751 161.152 212.234 160.596 212.629C160.039 213.032 159.547 213.225 159.119 213.225C158.627 213.225 158.207 213.064 157.868 212.742C157.529 212.42 157.36 212.089 157.36 211.751C157.36 211.412 157.513 211.09 157.82 210.784C159.668 209.003 161.233 207.206 162.508 205.41C163.783 203.613 164.775 201.929 165.485 200.358C164.84 200.39 164.138 200.446 163.379 200.519C162.621 200.599 161.814 200.632 160.959 200.632C160.523 200.632 160.079 200.632 159.619 200.607C159.159 200.591 158.732 200.519 158.352 200.398C157.965 200.277 157.65 200.068 157.408 199.777C157.158 199.487 157.037 199.076 157.037 198.553C157.102 198.158 157.279 197.803 157.594 197.489C157.9 197.183 158.409 197.03 159.119 197.03H159.49L159.482 197.022ZM177.589 193.146C177.338 192.84 177.217 192.558 177.217 192.316C177.217 191.921 177.411 191.559 177.798 191.236C178.186 190.914 178.621 190.753 179.114 190.753C179.67 190.753 180.146 190.971 180.542 191.398L182.204 193.702C182.664 194.347 183.019 195.015 183.269 195.708C183.511 196.401 183.689 197.11 183.777 197.828C183.866 198.553 183.931 199.278 183.963 199.995C183.995 200.72 184.036 201.437 184.1 202.138C185.238 202.171 186.424 202.187 187.659 202.187H190.894C191.265 202.251 191.532 202.404 191.701 202.646C191.871 202.896 191.951 203.17 191.951 203.476C191.951 204 191.782 204.483 191.443 204.926C191.104 205.369 190.676 205.595 190.152 205.595C189.168 205.595 188.159 205.611 187.126 205.643C186.093 205.676 185.085 205.692 184.1 205.692C184.068 207.078 183.987 208.415 183.842 209.704C183.705 210.993 183.527 212.242 183.309 213.443C183.213 214.031 182.963 214.434 182.551 214.668C182.131 214.901 181.712 215.014 181.284 215.014C180.857 215.014 180.493 214.917 180.195 214.716C179.904 214.515 179.759 214.216 179.759 213.814C179.759 213.693 179.775 213.596 179.808 213.54C180.082 212.154 180.284 210.671 180.405 209.092C180.526 207.505 180.59 205.966 180.59 204.459C180.59 202.952 180.534 201.445 180.429 200.124C180.324 198.802 180.171 197.682 179.993 196.756C179.719 196.2 179.372 195.628 178.952 195.024C178.533 194.427 178.081 193.799 177.589 193.154V193.146Z" fill="#F5C045" stroke="#F5C045" stroke-width="2" stroke-miterlimit="10"/>
</g>
<defs>
<clipPath id="clip0_70_1368">
<rect width="237" height="222" fill="white"/>
</clipPath>
</defs>
</svg>
