<svg width="164" height="115" viewBox="0 0 164 115" fill="none" xmlns="http://www.w3.org/2000/svg">
<g clip-path="url(#clip0_70_1430)">
<path d="M116.751 0C103.35 0 91.257 11.4592 82.6597 26.1499C90.8132 40.0738 95.8232 56.8945 95.8232 69.6013C95.8232 82.308 90.8132 93.4021 82.6597 101.435C91.257 109.912 103.357 114.994 116.751 114.994C142.847 114.994 164.006 95.7208 164.006 69.6013C164.006 43.4818 142.847 0 116.751 0ZM115.699 101.137C105.886 101.137 97.1122 96.7005 91.257 89.7325C94.2424 83.7503 95.9144 76.9466 95.9144 69.6073C95.9144 63.041 94.5768 55.3853 92.163 47.5956C97.9999 41.224 106.384 37.2257 115.705 37.2257C133.338 37.2257 147.638 51.5331 147.638 69.1874C147.638 86.8418 133.344 101.149 115.705 101.149L115.699 101.137Z" fill="#DBDBDB"/>
<path d="M105.022 73.563C107.047 73.563 108.689 71.9201 108.689 69.8934C108.689 67.8667 107.047 66.2238 105.022 66.2238C102.997 66.2238 101.356 67.8667 101.356 69.8934C101.356 71.9201 102.997 73.563 105.022 73.563Z" fill="#DBDBDB"/>
<path d="M125.859 73.563C127.884 73.563 129.526 71.9201 129.526 69.8934C129.526 67.8667 127.884 66.2238 125.859 66.2238C123.834 66.2238 122.193 67.8667 122.193 69.8934C122.193 71.9201 123.834 73.563 125.859 73.563Z" fill="#DBDBDB"/>
<path d="M99.7572 79.6973C101.285 79.6973 102.524 78.79 102.524 77.6708C102.524 76.5516 101.285 75.6443 99.7572 75.6443C98.2293 75.6443 96.9907 76.5516 96.9907 77.6708C96.9907 78.79 98.2293 79.6973 99.7572 79.6973Z" fill="#DBDBDB"/>
<path d="M131.124 79.6973C132.652 79.6973 133.891 78.79 133.891 77.6708C133.891 76.5516 132.652 75.6443 131.124 75.6443C129.597 75.6443 128.358 76.5516 128.358 77.6708C128.358 78.79 129.597 79.6973 131.124 79.6973Z" fill="#DBDBDB"/>
<path d="M47.255 0C21.1589 0 0 43.4818 0 69.6013C0 95.7208 21.1589 114.994 47.255 114.994C73.351 114.994 94.5099 95.7208 94.5099 69.6013C94.5099 43.4818 73.351 0 47.255 0ZM47.255 101.137C29.6225 101.137 15.322 86.8297 15.322 69.1753C15.322 51.5209 29.6164 37.2136 47.255 37.2136C64.8935 37.2136 79.1879 51.5209 79.1879 69.1753C79.1879 86.8297 64.8935 101.137 47.255 101.137Z" fill="#DBDBDB"/>
<path d="M36.8338 73.563C38.8587 73.563 40.5001 71.9201 40.5001 69.8934C40.5001 67.8667 38.8587 66.2238 36.8338 66.2238C34.809 66.2238 33.1675 67.8667 33.1675 69.8934C33.1675 71.9201 34.809 73.563 36.8338 73.563Z" fill="#DBDBDB"/>
<path d="M57.6761 73.563C59.701 73.563 61.3424 71.9201 61.3424 69.8934C61.3424 67.8667 59.701 66.2238 57.6761 66.2238C55.6512 66.2238 54.0098 67.8667 54.0098 69.8934C54.0098 71.9201 55.6512 73.563 57.6761 73.563Z" fill="#DBDBDB"/>
<path d="M31.5682 81.1518C33.0961 81.1518 34.3347 80.2745 34.3347 79.1922C34.3347 78.11 33.0961 77.2327 31.5682 77.2327C30.0403 77.2327 28.8018 78.11 28.8018 79.1922C28.8018 80.2745 30.0403 81.1518 31.5682 81.1518Z" fill="#DBDBDB"/>
<path d="M62.9359 81.1518C64.4638 81.1518 65.7024 80.2745 65.7024 79.1922C65.7024 78.11 64.4638 77.2327 62.9359 77.2327C61.408 77.2327 60.1694 78.11 60.1694 79.1922C60.1694 80.2745 61.408 81.1518 62.9359 81.1518Z" fill="#DBDBDB"/>
<path d="M54.3687 80.3302C53.5844 84.4076 50.8727 86.1298 47.2489 86.1298C43.315 86.1298 40.8404 84.2859 40.129 80.3302C39.4176 76.3746 43.315 77.9933 47.2489 77.9933C51.1827 77.9933 55.1105 76.4658 54.3687 80.3302Z" fill="#DBDBDB"/>
<path d="M119.11 76.4111C119.11 78.4376 117.468 80.0808 115.444 80.0808C113.419 80.0808 111.777 78.4376 111.777 76.4111" stroke="#DBDBDB" stroke-width="3" stroke-miterlimit="10"/>
</g>
<defs>
<clipPath id="clip0_70_1430">
<rect width="164" height="115" fill="white"/>
</clipPath>
</defs>
</svg>
