<svg width="233" height="164" viewBox="0 0 233 164" fill="none" xmlns="http://www.w3.org/2000/svg">
<g clip-path="url(#clip0_70_1403)">
<path d="M165.865 0C146.83 0 129.648 16.3463 117.429 37.2932C129.011 57.1496 136.128 81.1347 136.128 99.2659C136.128 117.397 129.011 133.206 117.429 144.664C129.648 156.757 146.83 164 165.865 164C202.939 164 233 136.516 233 99.2604C233 62.0052 202.939 0 165.865 0ZM164.369 144.23C150.427 144.23 137.964 137.905 129.643 127.965C133.882 119.432 136.258 109.731 136.258 99.2604C136.258 89.9019 134.357 78.9754 130.928 67.8645C139.222 58.7772 151.134 53.0753 164.374 53.0753C189.429 53.0753 209.738 73.4796 209.738 98.6528C209.738 123.826 189.429 144.23 164.374 144.23H164.369Z" fill="white"/>
<path d="M149.201 104.908C152.079 104.908 154.412 102.564 154.412 99.6727C154.412 96.7813 152.079 94.4374 149.201 94.4374C146.323 94.4374 143.99 96.7813 143.99 99.6727C143.99 102.564 146.323 104.908 149.201 104.908Z" fill="white"/>
<path d="M178.808 104.908C181.686 104.908 184.019 102.564 184.019 99.6727C184.019 96.7813 181.686 94.4374 178.808 94.4374C175.93 94.4374 173.597 96.7813 173.597 99.6727C173.597 102.564 175.93 104.908 178.808 104.908Z" fill="white"/>
<path d="M141.723 113.665C143.894 113.665 145.654 112.37 145.654 110.773C145.654 109.176 143.894 107.881 141.723 107.881C139.551 107.881 137.792 109.176 137.792 110.773C137.792 112.37 139.551 113.665 141.723 113.665Z" fill="white"/>
<path d="M186.286 113.665C188.458 113.665 190.218 112.37 190.218 110.773C190.218 109.176 188.458 107.881 186.286 107.881C184.115 107.881 182.355 109.176 182.355 110.773C182.355 112.37 184.115 113.665 186.286 113.665Z" fill="white"/>
<path d="M67.1353 0C30.0551 0 0 62.0107 0 99.2604C0 136.51 30.0551 164 67.1353 164C104.216 164 134.271 136.516 134.271 99.2604C134.271 62.0052 104.21 0 67.1353 0ZM67.1353 144.23C42.0804 144.23 21.7719 123.826 21.7719 98.6528C21.7719 73.4796 42.0804 53.0753 67.1353 53.0753C92.1902 53.0753 112.499 73.4796 112.499 98.6528C112.499 123.826 92.1902 144.23 67.1353 144.23Z" fill="white"/>
<path d="M52.3289 104.908C55.2068 104.908 57.5397 102.564 57.5397 99.6727C57.5397 96.7813 55.2068 94.4374 52.3289 94.4374C49.4511 94.4374 47.1182 96.7813 47.1182 99.6727C47.1182 102.564 49.4511 104.908 52.3289 104.908Z" fill="white"/>
<path d="M81.9359 104.908C84.8137 104.908 87.1467 102.564 87.1467 99.6727C87.1467 96.7813 84.8137 94.4374 81.9359 94.4374C79.058 94.4374 76.7251 96.7813 76.7251 99.6727C76.7251 102.564 79.058 104.908 81.9359 104.908Z" fill="white"/>
<path d="M44.8505 115.732C47.0215 115.732 48.7815 114.481 48.7815 112.938C48.7815 111.394 47.0215 110.144 44.8505 110.144C42.6794 110.144 40.9194 111.394 40.9194 112.938C40.9194 114.481 42.6794 115.732 44.8505 115.732Z" fill="white"/>
<path d="M89.4149 115.732C91.586 115.732 93.3459 114.481 93.3459 112.938C93.3459 111.394 91.586 110.144 89.4149 110.144C87.2439 110.144 85.4839 111.394 85.4839 112.938C85.4839 114.481 87.2439 115.732 89.4149 115.732Z" fill="white"/>
<path d="M77.2382 114.56C76.1258 120.381 72.2704 122.833 67.1244 122.833C61.5411 122.833 58.0204 120.202 57.0107 114.56C56.0225 109.037 61.5357 111.229 67.1244 111.229C72.7132 111.229 78.2911 109.053 77.2382 114.56Z" fill="white"/>
<path d="M169.218 108.966C169.218 111.858 166.885 114.202 164.007 114.202C161.129 114.202 158.796 111.858 158.796 108.966" stroke="white" stroke-width="5" stroke-miterlimit="10"/>
</g>
<defs>
<clipPath id="clip0_70_1403">
<rect width="233" height="164" fill="white"/>
</clipPath>
</defs>
</svg>
